<?xml version="1.0" encoding="UTF-8"?>
<svg id="_Слой_1" data-name="Слой_1" xmlns="http://www.w3.org/2000/svg" version="1.1" viewBox="0 0 595.28 841.89">
  <!-- Generator: Adobe Illustrator 29.3.1, SVG Export Plug-In . SVG Version: 2.1.0 Build 151)  -->
  <defs>
    <style>
      .st0 {
        fill: none;
      }

      .st0, .st1 {
        stroke: #1d1d1b;
        stroke-miterlimit: 10;
        stroke-width: 13px;
      }
    </style>
  </defs>
  <rect class="st0" x="176.14" y="354.54" width="243" height="189.92"/>
  <rect class="st1" x="176.14" y="319.59" width="243" height="34.96"/>
  <g>
    <rect class="st1" x="203.88" y="386.9" width="22.16" height="19.3"/>
    <rect class="st1" x="258.36" y="386.9" width="22.16" height="19.3"/>
    <rect class="st1" x="312.83" y="386.9" width="22.16" height="19.3"/>
    <rect class="st1" x="369.23" y="386.9" width="22.16" height="19.3"/>
  </g>
  <g>
    <rect class="st1" x="203.88" y="434.9" width="22.16" height="19.3"/>
    <rect class="st1" x="258.36" y="434.9" width="22.16" height="19.3"/>
    <rect class="st1" x="312.83" y="434.9" width="22.16" height="19.3"/>
    <rect class="st1" x="369.23" y="434.9" width="22.16" height="19.3"/>
  </g>
  <rect class="st1" x="203.88" y="482.9" width="22.16" height="19.3"/>
  <rect class="st1" x="258.36" y="482.9" width="22.16" height="19.3"/>
  <rect class="st1" x="312.83" y="482.9" width="22.16" height="19.3"/>
  <rect class="st1" x="214.97" y="297.42" width="37.04" height="30.57" rx="4.06" ry="4.06"/>
  <rect class="st1" x="343.27" y="297.42" width="37.04" height="30.57" rx="4.06" ry="4.06"/>
</svg>