<?xml version="1.0" encoding="UTF-8"?>
<svg id="_Слой_1" data-name="Слой_1" xmlns="http://www.w3.org/2000/svg" version="1.1" viewBox="0 0 595.28 841.89">
  <!-- Generator: Adobe Illustrator 29.3.1, SVG Export Plug-In . SVG Version: 2.1.0 Build 151)  -->
  <defs>
    <style>
      .st0 {
        fill: none;
        stroke: #1d1d1b;
        stroke-miterlimit: 10;
        stroke-width: 13px;
      }
    </style>
  </defs>
  <path class="st0" d="M303.9,282.52l32.97,91.08c1.12,3.11,4.03,5.21,7.33,5.32l96.81,3.21c6.22.21,8.78,8.08,3.87,11.91l-76.43,59.5c-2.61,2.03-3.71,5.44-2.8,8.61l26.86,93.07c1.73,5.98-4.97,10.85-10.13,7.36l-80.21-54.3c-2.73-1.85-6.32-1.85-9.06,0l-80.21,54.3c-5.16,3.49-11.86-1.38-10.13-7.36l26.86-93.07c.92-3.17-.19-6.58-2.8-8.61l-76.43-59.5c-4.91-3.83-2.35-11.7,3.87-11.91l96.81-3.21c3.3-.11,6.2-2.22,7.33-5.32l32.97-91.08c2.12-5.86,10.4-5.86,12.52,0Z"/>
</svg>