<svg width="30" height="30" viewBox="0 0 30 30" fill="none" xmlns="http://www.w3.org/2000/svg">
<ellipse cx="15" cy="14.871" rx="15" ry="14.871" fill="white"/>
<g clip-path="url(#clip0_142_9)">
<path d="M23.8418 17.396C23.8434 17.3954 23.8381 17.4251 23.8263 17.4825C23.8146 17.5399 23.8112 17.5745 23.7813 17.6846C23.7516 17.7947 23.7377 17.8843 23.6857 18.0417C23.6337 18.199 23.5978 18.3363 23.5202 18.5353C23.4426 18.7343 23.3744 18.9106 23.2685 19.1455C23.1627 19.3803 23.0824 19.5521 22.9334 19.8099C22.7844 20.0677 22.6692 20.2729 22.4741 20.5442C22.279 20.8154 22.115 21.0379 21.8728 21.3132C21.6306 21.5885 21.4096 21.8108 21.1209 22.0809C20.8322 22.351 20.5807 22.547 20.2358 22.7871C19.8909 23.0272 19.5946 23.2232 19.2002 23.421C18.8057 23.6188 18.4605 23.7953 18.0255 23.94C17.5904 24.0846 17.1776 24.2026 16.7175 24.3075C16.2574 24.4124 15.8243 24.4492 15.3442 24.4863C14.8642 24.5234 14.4099 24.4962 13.924 24.4609C13.4381 24.4256 12.9752 24.3302 12.4984 24.2216C12.0215 24.113 11.5627 23.9509 11.1095 23.7722C10.6563 23.5935 10.216 23.3639 9.79957 23.1223C9.38319 22.8807 8.97582 22.5869 8.60705 22.2926C8.23829 21.9983 7.87496 21.6498 7.56187 21.315C7.24878 20.9801 6.93552 20.5898 6.68342 20.2277C6.43131 19.8656 6.16848 19.4472 5.97997 19.0717C5.79145 18.6962 5.60565 18.2788 5.46275 17.9103C5.31986 17.5418 5.18214 17.0956 5.10021 16.7383C5.01827 16.3811 4.93581 15.9737 4.89311 15.6425C4.85042 15.3112 4.81418 14.9249 4.80527 14.6274C4.79635 14.33 4.80008 14.0134 4.80503 13.756C4.80992 13.4986 4.84647 13.1819 4.87158 12.97C4.89668 12.7581 4.93214 12.5268 4.95949 12.3635C4.98685 12.2003 5.02407 12.0179 5.04799 11.9065C5.07191 11.7952 5.08978 11.71 5.10119 11.6528C5.11258 11.5955 5.11752 11.5663 5.11554 11.5668C5.11237 11.5679 5.10923 11.5693 5.10609 11.5709C5.10301 11.5725 5.09993 11.5743 5.09691 11.5765C5.09388 11.5785 5.09094 11.581 5.08798 11.5835C5.08507 11.586 5.08215 11.5888 5.07928 11.5918C5.07637 11.5948 5.07356 11.5979 5.07077 11.6013C5.06795 11.6047 5.06519 11.6082 5.06246 11.6119C5.05973 11.6157 5.05698 11.6195 5.05433 11.6235C5.05165 11.6276 5.04899 11.6317 5.04632 11.636C5.04391 11.6404 5.04107 11.6448 5.03847 11.6493C5.03613 11.6539 5.03327 11.6585 5.03074 11.6633C5.02847 11.6681 5.02564 11.6729 5.0231 11.6778C5.0208 11.6828 5.01805 11.6877 5.01555 11.6928C5.01336 11.6979 5.01056 11.7029 5.00808 11.7081C5.00585 11.7133 5.00313 11.7185 5.0006 11.7237C4.99835 11.729 4.99564 11.7342 4.99319 11.7394C4.99094 11.7447 4.98823 11.7499 4.98577 11.7552C4.98352 11.7604 4.98084 11.7657 4.97834 11.7708C4.97611 11.7761 4.9734 11.7812 4.97092 11.7863C4.96871 11.7915 4.96596 11.7966 4.96346 11.8016C4.96126 11.8066 4.95844 11.8115 4.95595 11.8164C4.95366 11.8213 4.95088 11.826 4.94831 11.8307C4.94606 11.8355 4.94317 11.8399 4.94064 11.8444C4.9383 11.849 4.93546 11.8532 4.9328 11.8574C4.93041 11.8617 4.92752 11.8657 4.92487 11.8696C4.92221 11.8735 4.91948 11.8773 4.91675 11.8809C4.91402 11.8845 4.91127 11.8879 4.90847 11.8911C4.90566 11.8943 4.90287 11.8974 4.90004 11.9002C4.89717 11.9031 4.89431 11.9057 4.89141 11.9081C4.88852 11.9105 4.88556 11.9127 4.88257 11.9146C4.87957 11.9165 4.87654 11.9182 4.87347 11.9196C4.87035 11.9211 4.86731 11.9223 4.86413 11.9231C4.861 11.924 4.85779 11.9247 4.85449 11.9249C4.85152 11.9243 4.84232 11.9495 4.82724 11.9992C4.81212 12.0488 4.78242 12.1781 4.7609 12.276C4.73934 12.3739 4.69885 12.5481 4.67612 12.6917C4.6534 12.8352 4.61401 13.0531 4.59496 13.2392C4.57592 13.4253 4.54859 13.684 4.53752 13.9093C4.52647 14.1345 4.52108 14.4301 4.52173 14.6906C4.52243 14.9512 4.55035 15.3278 4.58032 15.6186C4.61029 15.9093 4.67078 16.3075 4.73493 16.6217C4.79908 16.9359 4.90423 17.3475 5.00603 17.6778C5.10782 18.0082 5.26649 18.4226 5.408 18.7617C5.54952 19.1008 5.7751 19.5471 5.9731 19.8782C6.1711 20.2093 6.42985 20.6024 6.66753 20.9251C6.90522 21.2478 7.24 21.6414 7.52989 21.9348C7.81977 22.2283 8.18009 22.5538 8.50356 22.823C8.82704 23.0922 9.25989 23.383 9.62379 23.6041C9.9877 23.8253 10.4427 24.0707 10.8372 24.2355C11.2317 24.4003 11.6836 24.5668 12.0911 24.6904C12.4986 24.8141 12.9841 24.9259 13.4007 24.9859C13.8172 25.0458 14.2756 25.0894 14.6877 25.107C15.0998 25.1246 15.5639 25.1089 15.9625 25.0664C16.361 25.024 16.7817 24.9581 17.1595 24.8801C17.5373 24.8021 17.941 24.6928 18.2864 24.5674C18.6317 24.4421 18.9857 24.3065 19.298 24.1582C19.6102 24.0099 19.9217 23.8465 20.197 23.6821C20.4723 23.5178 20.7408 23.3411 20.9764 23.1683C21.212 22.9954 21.4408 22.8206 21.6353 22.6473C21.8298 22.4739 22.0111 22.3054 22.1722 22.1477C22.3333 21.99 22.4818 21.8378 22.6024 21.6949C22.7231 21.552 22.8367 21.4274 22.9253 21.3122C23.0139 21.1971 23.0895 21.0993 23.1512 21.0204C23.2129 20.9415 23.2578 20.8782 23.2887 20.8366C23.3195 20.7949 23.3363 20.7741 23.3384 20.7755C23.3405 20.7767 23.3273 20.8005 23.2998 20.8451C23.2724 20.8896 23.2298 20.9567 23.1706 21.0388C23.1114 21.1209 23.038 21.2218 22.9513 21.3401C22.8646 21.4585 22.7545 21.5967 22.628 21.737C22.5015 21.8772 22.3598 22.0386 22.199 22.1997C22.0382 22.3608 21.854 22.534 21.6591 22.7107C21.4642 22.8874 21.2281 23.0675 20.9913 23.2436C20.7546 23.4197 20.4769 23.6003 20.1998 23.7677C19.9226 23.935 19.6004 24.1009 19.2857 24.2519C18.971 24.4028 18.5952 24.5604 18.2411 24.671C17.8871 24.7817 17.487 24.8994 17.1057 24.9791C16.7244 25.0587 16.2904 25.1198 15.8881 25.1633C15.4857 25.2069 15.0039 25.2104 14.5878 25.1933C14.1716 25.1761 13.701 25.1216 13.2803 25.0615C12.8596 25.0014 12.36 24.8691 11.9484 24.7447C11.5368 24.6202 11.0384 24.4406 10.6488 24.2547C10.2592 24.0687 9.81729 23.8329 9.44963 23.6098C9.08198 23.3868 8.6471 23.0673 8.32025 22.7957C7.99339 22.5241 7.59297 22.1614 7.31459 21.8515C7.03621 21.5416 6.72022 21.1621 6.47982 20.8364C6.23942 20.5108 5.95363 20.0653 5.76935 19.722C5.58506 19.3788 5.37824 18.9534 5.2347 18.6112C5.09116 18.2691 4.94625 17.8353 4.84262 17.5019C4.739 17.1684 4.65033 16.7387 4.5845 16.4215C4.51867 16.1044 4.47728 15.6893 4.44573 15.3957C4.41419 15.1022 4.40778 14.7103 4.40557 14.4471C4.40335 14.1839 4.41651 13.8208 4.43726 13.5939C4.458 13.367 4.48561 13.0987 4.51216 12.9115C4.53871 12.7243 4.57665 12.4969 4.60445 12.3526C4.63224 12.2083 4.6693 12.024 4.69329 11.9254C4.71728 11.8268 4.73555 11.7511 4.74761 11.7C4.75971 11.6488 4.76564 11.6222 4.76501 11.6217C4.76246 11.6199 4.7508 11.6523 4.73053 11.7174C4.71028 11.7824 4.66058 11.941 4.63013 12.0704C4.5997 12.1998 4.54165 12.4209 4.50834 12.6113C4.47501 12.8017 4.42466 13.0831 4.39494 13.3306C4.36523 13.578 4.3209 13.9771 4.31562 14.2777C4.31035 14.5783 4.30089 15.026 4.32959 15.3724C4.35828 15.7188 4.40659 16.2054 4.47693 16.5891C4.54728 16.9728 4.67165 17.4837 4.78945 17.8953C4.90723 18.3069 5.13795 18.8774 5.32746 19.2984C5.51696 19.7194 5.83471 20.2767 6.09806 20.6908C6.36143 21.1049 6.77531 21.6252 7.11143 22.0159C7.44757 22.4065 7.98542 22.9122 8.40666 23.2429C8.82789 23.5736 9.40492 23.9689 9.88416 24.2412C10.3634 24.5135 11.0517 24.8421 11.5864 25.0164C12.1211 25.1907 12.8074 25.387 13.369 25.4796C13.9306 25.5721 14.6396 25.6305 15.211 25.638C15.7824 25.6455 16.528 25.5732 17.0876 25.4693C17.6473 25.3654 18.3131 25.1803 18.8456 24.9988C19.3782 24.8175 20.0235 24.5056 20.5023 24.232C20.9811 23.9584 21.5193 23.5811 21.9418 23.2516C22.3643 22.922 22.8481 22.4533 23.1862 22.0639C23.5244 21.6745 23.9003 21.1939 24.1644 20.7796C24.4284 20.3655 24.7134 19.8597 24.9009 19.4372C25.0884 19.0148 25.2661 18.5341 25.3998 18.1268C25.5335 17.7195 25.6417 17.224 25.7064 16.8387C25.7711 16.4533 25.8199 16.0249 25.8432 15.6774C25.8665 15.3298 25.8655 14.9456 25.8561 14.6443C25.8468 14.343 25.8189 14.0114 25.7872 13.7633C25.7556 13.5152 25.7159 13.268 25.6828 13.0766C25.6496 12.8852 25.6054 12.6983 25.5772 12.5674C25.549 12.4364 25.5156 12.3116 25.4993 12.2443C25.4831 12.177 25.4763 12.1418 25.4796 12.141C25.4829 12.1401 25.496 12.1736 25.5181 12.2393C25.5403 12.3049 25.5796 12.4297 25.6132 12.5594C25.6467 12.6891 25.6964 12.877 25.7344 13.0675C25.7724 13.2579 25.8169 13.5072 25.8528 13.7546C25.8888 14.0019 25.9213 14.3402 25.9344 14.6412C25.9475 14.9421 25.952 15.3345 25.932 15.682C25.912 16.0295 25.8654 16.4674 25.8036 16.8529C25.7418 17.2384 25.6329 17.7493 25.5016 18.157C25.3704 18.5648 25.1913 19.0563 25.0059 19.4792C24.8205 19.9021 24.5299 20.4241 24.2676 20.8389C24.0053 21.2536 23.6211 21.7498 23.2845 22.1398C22.9478 22.5298 22.4488 23.017 22.0276 23.3472C21.6063 23.6774 21.0547 24.0669 20.577 24.3411C20.0994 24.6153 19.4672 24.9 18.945 25.1073C18.4228 25.3146 17.6863 25.4973 17.1275 25.6019C16.5687 25.7065 15.7971 25.785 15.2264 25.7784C14.6559 25.7717 13.9262 25.7152 13.3654 25.6236C12.8045 25.5319 12.0969 25.3346 11.5628 25.1614C11.0287 24.9882 10.3121 24.6534 9.8332 24.3823C9.35435 24.1113 8.75696 23.7084 8.3359 23.3791C7.91484 23.0499 7.41032 22.5572 7.0556 22.1848C6.70088 21.8124 6.24739 21.2177 5.98345 20.8053C5.71951 20.3929 5.38545 19.8197 5.19493 19.4004C5.00441 18.9812 4.79808 18.4476 4.65922 18.0439C4.52035 17.6402 4.38613 17.048 4.31379 16.666C4.24145 16.2839 4.18395 15.7824 4.15274 15.4375C4.12153 15.0926 4.12244 14.6282 4.12464 14.3289C4.12686 14.0296 4.1635 13.6119 4.18957 13.3655C4.21565 13.119 4.26054 12.8278 4.28967 12.6382C4.3188 12.4485 4.37129 12.2167 4.39691 12.0877C4.42255 11.9588 4.46656 11.7883 4.4815 11.7234C4.49641 11.6584 4.50246 11.6259 4.49898 11.6278C4.49215 11.6316 4.47436 11.6741 4.44635 11.7528C4.41831 11.8315 4.36294 12.0227 4.32278 12.1736C4.28249 12.3246 4.22126 12.5872 4.17696 12.8067C4.13265 13.0262 4.06391 13.4342 4.03721 13.7196C4.01051 14.005 3.96958 14.4767 3.97286 14.821C3.97614 15.1652 3.99261 15.6919 4.0362 16.0864C4.07976 16.481 4.17566 17.1267 4.28872 17.5566C4.40182 17.9865 4.58592 18.577 4.75483 19.0339C4.92385 19.4908 5.27936 20.2197 5.55183 20.6681C5.82442 21.1164 6.2619 21.7493 6.61689 22.1788C6.97187 22.6083 7.58657 23.2389 8.03938 23.6088C8.49218 23.9788 9.17305 24.4552 9.69514 24.7651C10.2172 25.075 11.0734 25.4508 11.6636 25.6554C12.2537 25.86 13.1754 26.0866 13.8068 26.17C14.4383 26.2534 15.3894 26.3044 16.0323 26.2608C16.6752 26.2171 17.6141 26.0804 18.2387 25.9125C18.8633 25.7446 19.7498 25.4261 20.3286 25.1435C20.9073 24.8609 21.7072 24.3777 22.2154 23.9949C22.7236 23.612 23.4095 22.9894 23.826 22.5253C24.2425 22.0613 24.7961 21.3317 25.1042 20.8101C25.4122 20.2885 25.7715 19.5494 25.9891 19.0086C26.2066 18.4677 26.4452 17.6272 26.5446 17.081C26.6439 16.5349 26.7329 15.7777 26.7483 15.2557C26.7637 14.7337 26.7252 14.0124 26.668 13.5315C26.6107 13.0505 26.474 12.3873 26.3588 11.9612C26.2435 11.5351 26.043 10.9399 25.8869 10.5788C25.7308 10.2176 25.5127 9.76112 25.3485 9.46293C25.1842 9.16474 24.9469 8.78238 24.7877 8.54914C24.6284 8.3159 24.3998 8.00031 24.2593 7.83186C24.1188 7.66339 23.9555 7.46698 23.8531 7.35562C23.7507 7.24425 23.6722 7.15891 23.6193 7.10139C23.5664 7.04389 23.4878 6.96776 23.4878 6.96776L24.0051 7.52467L24.4404 8.06135L24.8437 8.62243L25.2477 9.26609L25.5744 9.87537L25.8652 10.5027L26.1194 11.1462L26.3495 11.8734L26.5174 12.5459L26.6457 13.2276L26.736 13.9892L26.7729 14.6838L26.7685 15.38L26.714 16.15L26.6167 16.8411L26.4784 17.5257L26.2997 18.2014L26.0816 18.8655L25.7886 19.5845L25.4845 20.2143L25.1435 20.8247L24.7226 21.4763L24.3036 22.0353L23.8525 22.5685L23.3709 23.074L22.8003 23.5965L22.2567 24.0339L21.6886 24.4389L21.0307 24.8454L20.4142 25.1727L19.7796 25.464L19.0557 25.7414L18.3873 25.9473L17.7075 26.1142L17.0186 26.2411L16.2427 26.3276L15.5411 26.3621L14.838 26.3549L14.0544 26.2938L13.3567 26.1926L12.6657 26.0501L11.9839 25.8669L11.2359 25.6119L10.5838 25.3404L9.94896 25.0306L9.33373 24.6838L8.6736 24.2506L8.11072 23.8252L7.57412 23.3675L7.00865 22.8193L6.53779 22.2951L6.09833 21.7445L5.69155 21.1694L5.28262 20.4973L4.95455 19.8737L4.66292 19.2319L4.38582 18.4936L4.18052 17.8179L4.01472 17.131L3.88004 16.3495L3.80647 15.6447L3.77449 14.9361L3.78443 14.226L3.85232 13.4289C3.85232 13.4289 3.57755 15.4397 3.66012 16.1662C3.7172 16.6684 3.87966 17.4952 4.03422 18.0784C4.18881 18.6617 4.59373 19.7087 4.92367 20.3149C5.25362 20.9211 5.85546 21.8495 6.34296 22.4398C6.83047 23.03 7.76593 23.9039 8.43323 24.3967C9.10051 24.8897 10.4207 25.6265 11.344 25.947C12.2671 26.2676 13.8595 26.6184 14.9288 26.6521C15.998 26.6858 17.7589 26.4861 18.8131 26.148C19.8673 25.8098 21.4565 25.046 22.3267 24.3907C23.197 23.7355 24.4687 22.4825 25.0688 21.5732C25.6689 20.6638 26.3772 19.1973 26.6396 18.2875C26.902 17.3778 27.1077 16.0232 27.1276 15.3327C27.1475 14.6422 27.0862 13.8287 27.0792 13.7707C27.0721 13.7127 27.0369 13.3529 26.9758 12.9562C26.9147 12.5594 26.7367 11.7791 26.5699 11.2256C26.4031 10.6722 26.0028 9.73996 25.6838 9.12755C25.3649 8.51522 24.6861 7.53776 24.2111 6.99127C23.7361 6.4448 22.9003 5.67706 22.3017 5.21016C21.7032 4.74326 20.5834 4.12919 19.8887 3.82307C19.194 3.51696 17.9683 3.14489 17.2541 3.02525C16.5399 2.90558 15.4168 2.81459 14.7628 2.83288C14.1089 2.85118 13.0444 2.98184 12.441 3.11721C11.8375 3.25257 10.8482 3.56413 10.3261 3.79146C9.80388 4.01877 9.0245 4.42529 8.59249 4.69159C8.16049 4.95789 7.5022 5.44922 7.17029 5.72619C6.83839 6.00317 6.38798 6.4448 6.1463 6.68952C5.43491 7.70201 5.73204 7.45357 5.37521 8.38428C4.84296 9.73612 5.41577 11.5232 6.01066 11.8301C6.60556 12.1372 8.21206 11.7413 9.8373 10.1113C10.064 9.86474 10.1493 9.75891 10.4656 9.47467C10.7819 9.19044 10.8543 9.11991 11.2738 8.83901C11.6932 8.55811 11.847 8.47127 12.3638 8.22202C12.8805 7.97279 12.9961 7.9424 13.6067 7.77957C14.2173 7.61673 14.3812 7.59806 15.0591 7.55102C15.7369 7.50398 15.8555 7.48811 16.6289 7.62245C17.4023 7.75678 17.6122 7.75935 18.3868 8.10469C19.1614 8.45003 19.4107 8.54687 20.0948 9.08259C20.7789 9.61831 20.9857 9.82504 21.5104 10.4905C22.035 11.1559 22.1575 11.3307 22.473 12.1053C22.7884 12.8799 22.9011 13.1279 23.0084 13.8395C23.1156 14.5511 23.1623 14.8015 23.1403 15.3193C23.1182 15.8372 23.1082 16.0281 23.1029 16.07C23.0976 16.1119 23.0979 16.2611 23.0314 16.6488C22.965 17.0365 22.9471 17.2743 22.755 17.8536C22.563 18.4329 22.4583 18.7525 22.0772 19.4181C21.6961 20.0837 21.4595 20.4224 20.8693 21.0383C20.2792 21.6542 19.9277 21.9668 19.1238 22.4269C18.3198 22.8871 17.7994 23.1458 16.8645 23.3669C15.9297 23.588 15.2923 23.6896 14.3384 23.6287C13.3845 23.5679 12.6847 23.4326 11.8177 23.1496C10.9508 22.8666 10.3352 22.551 9.61704 22.0438C8.89888 21.5366 8.35837 21.0465 7.81946 20.4241C7.28063 19.8017 6.90473 19.204 6.56448 18.5422C6.57056 18.5858 6.58484 18.645 6.60684 18.7188C6.62884 18.7927 6.65564 18.8702 6.69744 18.9706C6.73923 19.071 6.78025 19.1776 6.84326 19.3011C6.90628 19.4246 6.96667 19.5547 7.05197 19.6977C7.13728 19.8408 7.22126 19.9888 7.32962 20.1478C7.43788 20.3068 7.54889 20.4667 7.68051 20.6382C7.81214 20.8098 7.95249 20.9754 8.10745 21.156C8.26241 21.3365 8.42492 21.4941 8.61171 21.6715C8.79849 21.849 8.97682 22.013 9.19464 22.1814C9.41245 22.3497 9.63077 22.5083 9.86994 22.6738C10.1091 22.8393 10.3459 22.9667 10.6125 23.1135C10.8792 23.2603 11.1328 23.3723 11.4236 23.4955C11.7144 23.6187 11.9826 23.7108 12.2934 23.8062C12.6043 23.9015 12.8838 23.9703 13.21 24.0346C13.5362 24.0991 13.8233 24.1398 14.1596 24.1711C14.4959 24.2025 14.7862 24.2112 15.1271 24.2084C15.468 24.2057 15.756 24.1804 16.096 24.1437C16.436 24.1069 16.7156 24.0478 17.0494 23.978C17.3832 23.9082 17.6488 23.8172 17.9714 23.7163C18.2939 23.6153 18.5149 23.5213 18.8151 23.3773C19.1152 23.2333 19.3506 23.1214 19.6294 22.9531C19.9083 22.7849 20.1201 22.6555 20.3742 22.467C20.6283 22.2784 20.8153 22.1387 21.0419 21.9343C21.2684 21.7299 21.4314 21.5875 21.6283 21.3721C21.8251 21.1568 21.9828 20.9745 22.1592 20.7619C22.3356 20.5492 22.4325 20.3999 22.5776 20.1857C22.7227 19.9714 22.8085 19.8435 22.9226 19.6333C23.0367 19.4231 23.1221 19.2658 23.2165 19.0699C23.311 18.8739 23.3718 18.7312 23.4476 18.5529C23.5234 18.3745 23.5641 18.2517 23.6226 18.0942C23.6812 17.9367 23.7073 17.8384 23.7503 17.705C23.7933 17.5717 23.8115 17.502 23.8411 17.3959" fill="#2F5487"/>
<path d="M20.3043 12.6329L13.9925 18.7074C13.9369 18.7609 13.8479 18.7599 13.7937 18.7052L10.2914 15.1779C10.2372 15.1235 10.2383 15.0358 10.2937 14.9823L11.1646 14.1442C11.2202 14.0909 11.3092 14.0918 11.3634 14.1464L13.9165 16.7176L19.257 11.5779C19.3127 11.5246 19.4014 11.5255 19.4558 11.5801L20.3066 12.4372C20.361 12.4918 20.3599 12.5793 20.3043 12.6329Z" fill="#2F5487"/>
</g>
<defs>
<clipPath id="clip0_142_9">
<rect width="24.5378" height="24.1997" fill="white" transform="matrix(-0.000756361 1 -1 -0.000743411 27.4974 2.48364)"/>
</clipPath>
</defs>
</svg>
